#!OML:ASF H:\Terrain\Patient Classification 1\Walking\liu\liu.ASF
:FULLY-SPECIFIED
:DEGREES
388
root 9.462830 17.084999 18.130600 5.897740 -0.246654 -5.053730
lowerback -64.607704 24.707500 16.622400
upperback -1.198950 30.526199 33.346802
thorax 34.017799 15.210900 27.988100
lowerneck -192.397003 -62.116299 -133.083008
upperneck 217.600006 -81.128799 133.294998
head 113.913002 -32.498100 58.848099
rclavicle 0.000000 -0.000000
rhumerus -278.647003 163.553009 -831.315002
rradius 436.825989
rwrist -210.391998
rhand -315.649994 -227.494995
rfingers 71.250198
rthumb -48.287300 -526.744019
lclavicle 0.000000 -0.000000
lhumerus -506.192017 -115.896996 953.973999
lradius 262.251007
lwrist 96.279999
lhand -130.446991 -225.394989
lfingers 71.250198
lthumb 130.501007 70.322403
rfemur 23.427898 52.019600 313.799011
rtibia 146.954010
rfoot -158.878006 56.944500
rtoes -148.134003
lfemur -407.914001 26.628799 -154.134995
ltibia 294.265991
lfoot -145.188995 92.041702
ltoes -125.852005
389
root 9.472780 17.084499 18.273500 5.880580 -0.554437 -4.798310
lowerback -66.565300 26.403900 13.717199
upperback 0.842816 32.896999 32.549099
thorax 37.033001 16.325901 29.192600
lowerneck -195.209015 -63.483299 -133.813995
upperneck 216.835007 -82.435600 133.363007
head 114.430000 -33.042000 58.723301
rclavicle 0.000000 -0.000000
rhumerus -270.472992 162.824005 -830.705017
rradius 429.089020
rwrist -211.609985
rhand -322.971008 -220.149002
rfingers 71.250198
rthumb -55.356300 -519.226013
lclavicle 0.000000 -0.000000
lhumerus -505.987000 -117.113998 955.703003
lradius 262.576019
lwrist 99.060806
lhand -129.294006 -216.192001
lfingers 71.250198
lthumb 131.612991 79.453903
rfemur 36.077400 55.042400 310.559021
rtibia 133.975006
rfoot -154.462997 57.304001
rtoes -136.593002
lfemur -408.088989 25.359001 -156.828003
ltibia 279.739014
lfoot -149.171997 94.339706
ltoes -105.346001
390
root 9.477010 17.074100 18.400101 5.946400 -0.646740 -5.138510
lowerback -67.716301 26.837500 15.631400
upperback 1.254320 33.215900 33.919598
thorax 38.124500 16.500000 29.661301
lowerneck -194.908005 -63.561703 -133.429001
upperneck 215.955994 -82.322701 132.296997
head 113.946999 -33.092201 58.223400
rclavicle -0.000000 -0.000000
rhumerus -265.798004 163.829987 -831.192993
rradius 423.442017
rwrist -211.629013
rhand -331.157990 -227.292999
rfingers 71.250198
rthumb -63.260002 -526.148010
lclavicle -0.000000 -0.000000
lhumerus -507.669983 -114.161995 955.624023
lradius 263.847992
lwrist 99.664398
lhand -130.190002 -217.299011
lfingers 71.250198
lthumb 130.748001 78.402802
rfemur 47.683903 59.334202 314.839996
rtibia 119.891006
rfoot -149.858994 54.365402
rtoes -131.457001
lfemur -411.531982 22.764999 -151.184998
ltibia 266.388000
lfoot -149.722000 96.963104
ltoes -121.817001
391
root 9.487060 17.051701 18.525900 5.999630 -0.737290 -5.766120
lowerback -68.893799 27.517799 21.037300
upperback 1.870410 33.533901 35.893398
thorax 39.612999 16.733700 28.823099
lowerneck -194.876007 -62.866402 -133.307007
upperneck 214.778000 -81.429199 132.989990
head 113.387001 -32.601799 58.581398
rclavicle -0.000000 -0.000000
rhumerus -262.963989 162.992004 -831.530029
rradius 420.451996
rwrist -209.920990
rhand -322.316010 -220.431000
rfingers 71.250198
rthumb -54.723301 -519.525024
lclavicle -0.000000 -0.000000
lhumerus -509.076996 -110.319000 954.365967
lradius 265.470001
lwrist 98.413895
lhand -125.494003 -217.250000
lfingers 71.250198
lthumb 135.274994 78.156403
rfemur 59.812897 57.848000 321.148010
rtibia 103.881996
rfoot -144.813995 57.420601
rtoes -142.253998
lfemur -415.196991 18.528301 -140.761993
ltibia 253.852997
lfoot -151.154999 99.904099
ltoes -166.809006
392
root 9.503350 17.037901 18.660500 5.923810 -0.811229 -6.141150
lowerback -68.315498 28.164700 24.886200
upperback 2.265800 34.046398 37.039001
thorax 39.842899 17.051899 27.903299
lowerneck -194.890991 -62.644100 -134.222000
upperneck 214.501984 -81.047501 133.955002
head 113.319000 -32.396099 59.172802
rclavicle -0.000000 -0.000000
rhumerus -262.542999 161.364990 -832.063965
rradius 419.205017
rwrist -207.257004
rhand -317.134003 -213.549011
rfingers 71.250198
rthumb -49.720200 -512.765991
lclavicle -0.000000 -0.000000
lhumerus -511.584015 -107.212997 953.929993
lradius 267.037994
lwrist 97.946701
lhand -120.200996 -215.250000
lfingers 71.250198
lthumb 140.375992 79.809700
rfemur 72.006302 57.944199 324.335999
rtibia 90.698097
rfoot -142.326996 58.278999
rtoes -154.436996
lfemur -415.531006 13.620300 -133.632004
ltibia 240.769012
lfoot -154.054001 100.372002
ltoes -172.269989
393
root 9.520570 17.038700 18.796900 5.960240 -0.813066 -6.275270
lowerback -68.611206 28.486300 26.228399
upperback 1.511840 34.361301 37.606701
thorax 39.262001 17.229900 27.763500
lowerneck -191.929001 -62.408100 -135.446991
upperneck 214.631012 -80.744202 134.074005
head 112.802002 -32.454601 59.507401
rclavicle 0.000000 0.000000
rhumerus -263.770020 161.966003 -833.286011
rradius 417.991974
rwrist -207.523987
rhand -320.535004 -214.769989
rfingers 71.250198
rthumb -53.003700 -513.906982
lclavicle 0.000000 0.000000
lhumerus -515.432983 -105.389999 955.360046
lradius 267.816010
lwrist 99.356003
lhand -119.013992 -235.590988
lfingers 71.250198
lthumb 141.520004 59.389400
rfemur 85.435196 57.389999 324.847992
rtibia 72.671402
rfoot -130.960999 58.269600
rtoes -143.781998
lfemur -416.992981 5.923920 -128.084000
ltibia 229.855988
lfoot -158.945999 104.636002
ltoes -148.322006
394
root 9.535300 17.042500 18.931101 6.315230 -0.950264 -5.793910
lowerback -72.800201 28.797199 20.488300
upperback 0.849697 35.132202 36.336201
thorax 40.633202 17.507000 29.949701
lowerneck -189.631012 -61.855896 -136.266006
upperneck 213.399994 -79.996399 134.582001
head 111.837997 -32.210701 59.938999
rclavicle -0.000000 0.000000
rhumerus -262.367981 161.585007 -834.385986
rradius 415.442993
rwrist -205.993988
rhand -315.182007 -221.938995
rfingers 71.250198
rthumb -47.835102 -521.198975
lclavicle -0.000000 0.000000
lhumerus -517.051025 -103.813004 956.468994
lradius 266.958984
lwrist 98.284904
lhand -102.594994 -200.875000
lfingers 71.250198
lthumb 157.337006 92.929199
rfemur 101.749001 58.284401 318.342987
rtibia 41.955799
rfoot -110.369995 59.959301
rtoes -109.849998
lfemur -421.531982 -3.572870 -127.718002
ltibia 220.404999
lfoot -162.434998 111.502998
ltoes -122.304001
395
root 9.534890 17.026300 19.070101 6.268480 -1.117140 -6.577010
lowerback -73.391701 30.005199 26.675701
upperback 1.974320 36.040398 38.435398
thorax 42.362000 18.054399 28.875401
lowerneck -190.675995 -61.735603 -134.613007
upperneck 212.549988 -79.721901 133.123993
head 111.530998 -32.074699 59.088898
rclavicle 0.000000 0.000000
rhumerus -259.614990 158.916992 -835.438965
rradius 412.149017
rwrist -201.188995
rhand -307.665009 -228.587006
rfingers 71.250198
rthumb -40.576900 -527.997986
lclavicle 0.000000 0.000000
lhumerus -517.947021 -101.651001 955.961975
lradius 266.692993
lwrist 93.769699
lhand -102.686005 -206.244995
lfingers 71.250198
lthumb 157.249008 87.566795
rfemur 128.287994 59.654102 326.777008
rtibia -0.000000
rfoot -87.877197 60.434799
rtoes -89.106506
lfemur -422.955994 -10.826700 -112.018997
ltibia 212.598999
lfoot -160.851990 120.018997
ltoes -124.251007
396
root 9.553050 17.007000 19.214300 6.184070 -1.191250 -6.942150
lowerback -73.630402 31.316200 31.029202
upperback 3.224460 37.300999 39.133698
thorax 44.004799 18.761801 27.397202
lowerneck -193.348999 -62.854801 -134.181000
upperneck 213.421997 -80.814896 131.674988
head 112.457001 -32.599800 58.279602
rclavicle -0.000000 -0.000000
rhumerus -258.240997 156.440002 -835.365967
rradius 409.656982
rwrist -199.345001
rhand -307.716003 -223.722000
rfingers 71.250198
rthumb -40.626301 -523.132019
lclavicle -0.000000 -0.000000
lhumerus -519.034973 -100.956001 956.682983
lradius 267.742004
lwrist 90.683807
lhand -119.187004 -250.158997
lfingers 71.250198
lthumb 141.354004 44.832302
rfemur 135.150009 59.767300 329.845001
rtibia -0.000000
rfoot -87.795097 62.202400
rtoes -82.396606
lfemur -422.807007 -22.411201 -100.410995
ltibia 205.300995
lfoot -157.532990 138.382996
ltoes -164.782013
397
root 9.579440 16.983900 19.367599 6.151360 -1.388660 -6.853350
lowerback -74.404701 32.608200 31.270298
upperback 3.719700 38.951099 38.668701
thorax 44.970798 19.588200 27.041599
lowerneck -194.256989 -63.791000 -136.076004
upperneck 214.510986 -81.697395 132.223999
head 113.301003 -33.061901 58.706001
rclavicle -0.000000 -0.000000
rhumerus -258.596008 155.503998 -835.786011
rradius 408.115997
rwrist -199.703003
rhand -308.505005 -219.987000
rfingers 71.250198
rthumb -41.387501 -519.382996
lclavicle -0.000000 -0.000000
lhumerus -520.710999 -101.520004 958.919983
lradius 267.237000
lwrist 89.320099
lhand -123.358002 -270.251007
lfingers 71.250198
lthumb 137.333008 25.016500
rfemur 141.998001 60.822601 327.750000
rtibia 0.000000
rfoot -88.612404 63.192001
rtoes -93.778694
lfemur -423.963013 -34.492401 -94.059097
ltibia 202.243988
lfoot -157.154999 153.816010
ltoes -180.407013
398
root 9.605200 16.983400 19.512199 6.371290 -1.464910 -6.798170
lowerback -76.127197 33.049099 31.803301
upperback 2.586210 39.476097 37.826500
thorax 44.840103 19.863400 25.991699
lowerneck -193.309998 -63.512604 -136.680008
upperneck 214.382004 -81.437195 133.033997
head 113.097000 -32.937500 59.174000
rclavicle 0.000000 0.000000
rhumerus -259.606995 155.798004 -838.122009
rradius 406.202026
rwrist -199.351013
rhand -306.078003 -221.584000
rfingers 71.250198
rthumb -39.043800 -521.023010
lclavicle 0.000000 0.000000
lhumerus -523.881958 -100.979996 959.508972
lradius 267.082001
lwrist 87.296104
lhand -116.077003 -260.578979
lfingers 71.250198
lthumb 144.350006 34.201099
rfemur 144.500000 61.259697 326.036011
rtibia -0.000000
rfoot -88.225296 64.612396
rtoes -112.117996
lfemur -427.579010 -43.532200 -89.043503
ltibia 199.324005
lfoot -162.199997 154.723999
ltoes -141.156998
